<svg width="308" height="308" viewBox="0 0 308 308" fill="none" xmlns="http://www.w3.org/2000/svg">
<g filter="url(#filter0_d_1270_4)">
<circle cx="154" cy="152" r="142.5" stroke="#4D4B4B" stroke-width="15" shape-rendering="crispEdges"/>
</g>
<g filter="url(#filter1_d_1270_4)">
<path d="M154 2.00012C177.705 2.00012 201.072 7.61823 222.186 18.3938C243.3 29.1694 261.56 44.7957 275.468 63.9915C289.376 83.1873 298.537 105.406 302.199 128.826C305.861 152.247 303.921 176.201 296.536 198.727L282.253 194.044C288.897 173.776 290.644 152.222 287.348 131.149C284.053 110.075 275.81 90.0829 263.296 72.8107C250.781 55.5384 234.352 41.478 215.353 31.7822C196.355 22.0865 175.329 17.0313 154 17.0313V2.00012Z" fill="#3DD2CC"/>
</g>
<defs>
<filter id="filter0_d_1270_4" x="0" y="0" width="308" height="308" filterUnits="userSpaceOnUse" color-interpolation-filters="sRGB">
<feFlood flood-opacity="0" result="BackgroundImageFix"/>
<feColorMatrix in="SourceAlpha" type="matrix" values="0 0 0 0 0 0 0 0 0 0 0 0 0 0 0 0 0 0 127 0" result="hardAlpha"/>
<feOffset dy="2"/>
<feGaussianBlur stdDeviation="2"/>
<feComposite in2="hardAlpha" operator="out"/>
<feColorMatrix type="matrix" values="0 0 0 0 0 0 0 0 0 0 0 0 0 0 0 0 0 0 0.25 0"/>
<feBlend mode="normal" in2="BackgroundImageFix" result="effect1_dropShadow_1270_4"/>
<feBlend mode="normal" in="SourceGraphic" in2="effect1_dropShadow_1270_4" result="shape"/>
</filter>
<filter id="filter1_d_1270_4" x="150" y="0.00012207" width="158" height="204.726" filterUnits="userSpaceOnUse" color-interpolation-filters="sRGB">
<feFlood flood-opacity="0" result="BackgroundImageFix"/>
<feColorMatrix in="SourceAlpha" type="matrix" values="0 0 0 0 0 0 0 0 0 0 0 0 0 0 0 0 0 0 127 0" result="hardAlpha"/>
<feOffset dy="2"/>
<feGaussianBlur stdDeviation="2"/>
<feComposite in2="hardAlpha" operator="out"/>
<feColorMatrix type="matrix" values="0 0 0 0 0 0 0 0 0 0 0 0 0 0 0 0 0 0 0.25 0"/>
<feBlend mode="normal" in2="BackgroundImageFix" result="effect1_dropShadow_1270_4"/>
<feBlend mode="normal" in="SourceGraphic" in2="effect1_dropShadow_1270_4" result="shape"/>
</filter>
</defs>
</svg>
